# xmcd CD database file
#
# Track frame offsets:
#	150
#	21110
#	39135
#	60150
#
# Disc length: 1078 seconds
#
# Revision: 1
# Processed by: cddbd v1.5.2PL0 Copyright (c) Steve Scherf et al.
# Submitted via: CDex 1.70beta2
#
DISCID=1f043404
DTITLE=倉木麻衣 - Winter Bells
DYEAR=2002
DGENRE=R&B
TTITLE0=Winter Bells
TTITLE1=thankful
TTITLE2=always ～Gomi's Lair Club Mix～ (Radio Edit)
TTITLE3=Winter Bells (Instrumental)
EXTD=YEAR: 2002
EXTT0=
EXTT1=
EXTT2=
EXTT3=
PLAYORDER=
